#N canvas 1074 275 700 529 12;
#X obj 130 194 bp~ 5000 2;
#X obj 131 159 hip~;
#X obj 130 127 noise~;
#X floatatom 185 159 5 0 0 0 - - -;
#X obj 185 21 vsl 15 128 0 5000 0 0 empty empty empty 0 -9 0 10 -262144
-1 -1 11500 1;
#X obj 523 -62 bng 15 250 50 0 empty empty empty 17 7 0 10 -262144
-1 -1;
#X obj 33 477 dac~;
#X obj 40 -170 line~;
#X obj 41 231 *~;
#X msg 40 -199 1 \, 0 300;
#X obj 41 15 pow~ 4;
#X floatatom 302 156 5 0 0 0 - - -;
#X obj 302 17 vsl 15 128 12 0 0 0 empty empty empty 0 -9 0 10 -262144
-1 -1 11600 1;
#X obj 32 414 *~;
#X floatatom 151 385 5 0 0 0 - - -;
#X obj 151 242 vsl 15 128 0 0.4 0 0 empty empty empty 0 -9 0 10 -262144
-1 -1 7000 1;
#X text 179 242 Volume Slider;
#X text 207 132 Brightness;
#X text 329 105 Sand Intensity in reverse;
#X floatatom 126 -21 5 0 0 0 - - -;
#X obj 126 -159 vsl 15 128 8 1 0 0 empty empty empty 0 -9 0 10 -262144
-1 -1 6300 1;
#X text 149 -56 Length;
#X msg 186 -193 \; pd dsp \$1;
#X obj 186 -217 tgl 15 0 empty empty empty 17 7 0 10 -262144 -1 -1
1 1;
#X obj 40 -229 r steps;
#X text 311 -193 variable name to send steps SE: steps;
#X obj 398 -115 adc~;
#X obj 399 -10 writesf~ 2;
#X msg 471 -52 stop;
#X msg 471 -77 start;
#X msg 462 -111 open steps.wav;
#X connect 0 0 8 1;
#X connect 1 0 0 0;
#X connect 2 0 1 0;
#X connect 3 0 0 1;
#X connect 4 0 3 0;
#X connect 5 0 9 0;
#X connect 7 0 10 0;
#X connect 8 0 13 0;
#X connect 9 0 7 0;
#X connect 10 0 8 0;
#X connect 11 0 0 2;
#X connect 12 0 11 0;
#X connect 13 0 6 0;
#X connect 13 0 6 1;
#X connect 13 0 27 0;
#X connect 13 0 27 1;
#X connect 14 0 13 1;
#X connect 15 0 14 0;
#X connect 19 0 10 1;
#X connect 20 0 19 0;
#X connect 23 0 22 0;
#X connect 24 0 9 0;
#X connect 26 0 27 0;
#X connect 26 1 27 1;
#X connect 28 0 27 0;
#X connect 29 0 27 0;
#X connect 30 0 27 0;
